<svg width="32" height="34" viewBox="0 0 32 34" fill="none" xmlns="http://www.w3.org/2000/svg">
<path d="M11.7277 16.0849C11.6812 16.0849 11.6502 16.0849 11.6037 16.0849C11.5261 16.0693 11.4175 16.0693 11.3245 16.0849C6.82628 15.9453 3.42938 12.4088 3.42938 8.05018C3.42938 3.61405 7.04343 0 11.4796 0C15.9156 0 19.5297 3.61405 19.5297 8.05018C19.5142 12.4088 16.1017 15.9453 11.7743 16.0849C11.7588 16.0849 11.7433 16.0849 11.7277 16.0849ZM11.4796 2.32664C8.33084 2.32664 5.75602 4.90146 5.75602 8.05018C5.75602 11.1524 8.17573 13.6496 11.2624 13.7582C11.3555 13.7427 11.5571 13.7427 11.7588 13.7582C14.7988 13.6186 17.1875 11.1213 17.203 8.05018C17.203 4.90146 14.6282 2.32664 11.4796 2.32664Z" fill="white"/>
<path d="M23.1746 16.2865C23.128 16.2865 23.0815 16.2865 23.035 16.271C22.399 16.333 21.7475 15.8832 21.6855 15.2472C21.6235 14.6113 22.0112 14.0374 22.6472 13.9598C22.8333 13.9443 23.035 13.9443 23.2056 13.9443C25.4702 13.8202 27.2384 11.9589 27.2384 9.67881C27.2384 7.32115 25.3306 5.4133 22.9729 5.4133C22.337 5.42881 21.8096 4.90144 21.8096 4.26549C21.8096 3.62955 22.337 3.10217 22.9729 3.10217C26.6025 3.10217 29.5651 6.06476 29.5651 9.69433C29.5651 13.2618 26.7731 16.1469 23.2211 16.2865C23.2056 16.2865 23.1901 16.2865 23.1746 16.2865Z" fill="white"/>
<path d="M11.7418 33.0383C8.70164 33.0383 5.64599 32.2628 3.33485 30.7117C1.17883 29.2847 0 27.3303 0 25.2053C0 23.0803 1.17883 21.1104 3.33485 19.6679C7.98814 16.5812 15.5264 16.5812 20.1487 19.6679C22.2892 21.0949 23.4836 23.0493 23.4836 25.1743C23.4836 27.2993 22.3047 29.2691 20.1487 30.7117C17.8221 32.2628 14.7819 33.0383 11.7418 33.0383ZM4.62226 21.6222C3.13321 22.6149 2.32664 23.8868 2.32664 25.2208C2.32664 26.5392 3.14872 27.8111 4.62226 28.7883C8.48449 31.3786 14.9991 31.3786 18.8613 28.7883C20.3503 27.7956 21.1569 26.5237 21.1569 25.1898C21.1569 23.8713 20.3348 22.5994 18.8613 21.6222C14.9991 19.0474 8.48449 19.0474 4.62226 21.6222Z" fill="white"/>
<path d="M25.9663 30.2464C25.4234 30.2464 24.9425 29.8741 24.834 29.3157C24.7099 28.6798 25.1132 28.0748 25.7336 27.9352C26.7108 27.7336 27.6104 27.3458 28.3084 26.8029C29.1925 26.136 29.6734 25.2984 29.6734 24.4143C29.6734 23.5301 29.1925 22.6925 28.3239 22.0411C27.6414 21.5137 26.7883 21.1414 25.7801 20.9088C25.1597 20.7692 24.7564 20.1487 24.896 19.5128C25.0356 18.8924 25.656 18.4891 26.292 18.6287C27.6259 18.9234 28.7892 19.4508 29.7354 20.1798C31.1779 21.2655 32 22.8011 32 24.4143C32 26.0274 31.1624 27.563 29.7199 28.6643C28.7582 29.4088 27.5484 29.9517 26.2144 30.2153C26.1214 30.2464 26.0438 30.2464 25.9663 30.2464Z" fill="white"/>
</svg>
