<svg width="37" height="36" viewBox="0 0 37 36" fill="none" xmlns="http://www.w3.org/2000/svg">
<path d="M27.7251 36H8.31418C3.72127 36 0 32.262 0 27.6691V15.2481C0 12.9683 1.40805 10.102 3.21839 8.6939L12.2534 1.65367C14.9689 -0.45839 19.3104 -0.558965 22.1264 1.419L32.4856 8.67714C34.4804 10.0684 36.0393 13.0521 36.0393 15.4828V27.6858C36.0393 32.262 32.318 36 27.7251 36ZM13.7955 3.63164L4.76054 10.6719C3.5704 11.6106 2.51437 13.7394 2.51437 15.2481V27.6691C2.51437 30.8707 5.11255 33.4856 8.31418 33.4856H27.7251C30.9267 33.4856 33.5249 30.8875 33.5249 27.6858V15.4828C33.5249 13.8735 32.3683 11.6441 31.0441 10.7389L20.6849 3.48078C18.774 2.13978 15.6226 2.20683 13.7955 3.63164Z" fill="#FCFDFE"/>
<path d="M18.0196 29.295C17.3324 29.295 16.7625 28.7251 16.7625 28.0378V23.0091C16.7625 22.3218 17.3324 21.7519 18.0196 21.7519C18.7069 21.7519 19.2768 22.3218 19.2768 23.0091V28.0378C19.2768 28.7251 18.7069 29.295 18.0196 29.295Z" fill="#FCFDFE"/>
</svg>
