<svg width="32" height="32" viewBox="0 0 32 32" fill="none" xmlns="http://www.w3.org/2000/svg">
<path d="M15.9555 32C14.9314 32 13.9666 31.4805 13.2839 30.5751L11.0575 27.6067C11.013 27.5473 10.8349 27.4731 10.7607 27.4583H10.0186C3.82931 27.4583 0 25.7811 0 17.4397V10.0186C0 3.45826 3.45826 0 10.0186 0H21.8924C28.4527 0 31.9109 3.45826 31.9109 10.0186V17.4397C31.9109 24 28.4527 27.4583 21.8924 27.4583H21.1503C21.0315 27.4583 20.9276 27.5176 20.8534 27.6067L18.6271 30.5751C17.9443 31.4805 16.9796 32 15.9555 32ZM10.0186 2.22635C4.70501 2.22635 2.22635 4.70501 2.22635 10.0186V17.4397C2.22635 24.1484 4.5269 25.2319 10.0186 25.2319H10.7607C11.5176 25.2319 12.3785 25.6623 12.8386 26.2709L15.0649 29.2393C15.5844 29.9221 16.3265 29.9221 16.846 29.2393L19.0724 26.2709C19.5622 25.6178 20.334 25.2319 21.1503 25.2319H21.8924C27.2059 25.2319 29.6846 22.7532 29.6846 17.4397V10.0186C29.6846 4.70501 27.2059 2.22635 21.8924 2.22635H10.0186Z" fill="#F9FAFB"/>
<path d="M15.9555 15.9555C15.1243 15.9555 14.4713 15.2876 14.4713 14.4712C14.4713 13.6549 15.1392 12.987 15.9555 12.987C16.7718 12.987 17.4397 13.6549 17.4397 14.4712C17.4397 15.2876 16.7867 15.9555 15.9555 15.9555Z" fill="#F9FAFB"/>
<path d="M21.8924 15.9555C21.0612 15.9555 20.4081 15.2876 20.4081 14.4712C20.4081 13.6549 21.076 12.987 21.8924 12.987C22.7087 12.987 23.3766 13.6549 23.3766 14.4712C23.3766 15.2876 22.7235 15.9555 21.8924 15.9555Z" fill="#F9FAFB"/>
<path d="M10.0185 15.9555C9.18736 15.9555 8.5343 15.2876 8.5343 14.4712C8.5343 13.6549 9.20221 12.987 10.0185 12.987C10.8349 12.987 11.5028 13.6549 11.5028 14.4712C11.5028 15.2876 10.8497 15.9555 10.0185 15.9555Z" fill="#F9FAFB"/>
</svg>
