<svg width="32" height="40" viewBox="0 0 32 40" fill="none" xmlns="http://www.w3.org/2000/svg">
<path d="M16.0471 35.3117C11.795 35.3117 7.54295 34.6365 3.50988 33.2861C1.97695 32.7569 0.808998 31.6801 0.298021 30.275C-0.231205 28.8698 -0.0487133 27.3186 0.790749 25.9317L2.8894 22.4461C3.32739 21.7161 3.72887 20.2562 3.72887 19.3985V14.1245C3.72887 7.33578 9.25837 1.80627 16.0471 1.80627C22.8358 1.80627 28.3653 7.33578 28.3653 14.1245V19.3985C28.3653 20.2379 28.7668 21.7161 29.2048 22.4643L31.2852 25.9317C32.0699 27.2456 32.2159 28.8333 31.6867 30.275C31.1574 31.7166 30.0077 32.8116 28.5661 33.2861C24.5512 34.6365 20.2992 35.3117 16.0471 35.3117ZM16.0471 4.54365C10.7731 4.54365 6.46624 8.83221 6.46624 14.1245V19.3985C6.46624 20.7306 5.91877 22.7016 5.24355 23.8512L3.14489 27.3368C2.74341 28.0121 2.63392 28.7238 2.87116 29.326C3.09015 29.9465 3.63762 30.421 4.38584 30.6764C12.014 33.2313 20.0984 33.2313 27.7266 30.6764C28.3836 30.4575 28.8945 29.9647 29.1318 29.3078C29.369 28.6508 29.3143 27.9391 28.9493 27.3368L26.8506 23.8512C26.1572 22.6651 25.6279 20.7124 25.6279 19.3802V14.1245C25.6279 8.83221 21.3394 4.54365 16.0471 4.54365Z" fill="#F9FBFF"/>
<path d="M19.4409 5.03681C19.3132 5.03681 19.1854 5.01856 19.0577 4.98206C18.5284 4.83606 18.0175 4.72657 17.5247 4.65357C15.9736 4.45283 14.4771 4.56233 13.0719 4.98206C12.561 5.1463 12.0135 4.98206 11.6668 4.59882C11.3201 4.21559 11.2106 3.66812 11.4113 3.17539C12.1595 1.25922 13.9844 3.05176e-05 16.0648 3.05176e-05C18.1452 3.05176e-05 19.9701 1.24098 20.7184 3.17539C20.9008 3.66812 20.8096 4.21559 20.4629 4.59882C20.1891 4.89081 19.8059 5.03681 19.4409 5.03681Z" fill="#F9FBFF"/>
<path d="M16.0464 39.4729C14.2397 39.4729 12.4878 38.7429 11.2104 37.4655C9.93297 36.188 9.203 34.4361 9.203 32.6295H11.9404C11.9404 33.7062 12.3783 34.7646 13.1448 35.5311C13.9112 36.2975 14.9697 36.7355 16.0464 36.7355C18.3093 36.7355 20.1525 34.8924 20.1525 32.6295H22.8898C22.8898 36.407 19.824 39.4729 16.0464 39.4729Z" fill="#F9FBFF"/>
</svg>
