<svg width="34" height="33" viewBox="0 0 34 33" fill="none" xmlns="http://www.w3.org/2000/svg">
<path d="M16.8778 22.3559C13.6278 22.3559 10.9902 19.7182 10.9902 16.4683C10.9902 13.2183 13.6278 10.5807 16.8778 10.5807C20.1277 10.5807 22.7653 13.2183 22.7653 16.4683C22.7653 19.7182 20.1277 22.3559 16.8778 22.3559ZM16.8778 12.9357C14.9309 12.9357 13.3452 14.5214 13.3452 16.4683C13.3452 18.4151 14.9309 20.0008 16.8778 20.0008C18.8246 20.0008 20.4103 18.4151 20.4103 16.4683C20.4103 14.5214 18.8246 12.9357 16.8778 12.9357Z" fill="white"/>
<path d="M21.9175 32.4665C21.5878 32.4665 21.2581 32.4194 20.9284 32.3409C19.955 32.074 19.1386 31.4617 18.6205 30.5982L18.4321 30.2842C17.5058 28.6827 16.234 28.6827 15.3077 30.2842L15.135 30.5825C14.6169 31.4617 13.8005 32.0897 12.8271 32.3409C11.838 32.6078 10.8175 32.4665 9.95395 31.9484L7.25351 30.3941C6.29579 29.8446 5.60498 28.9496 5.30668 27.8663C5.02407 26.783 5.16538 25.6683 5.71488 24.7106C6.17019 23.9099 6.29579 23.1877 6.02889 22.7324C5.76199 22.277 5.08688 22.0101 4.16056 22.0101C1.86833 22.0101 0 20.1418 0 17.8496V15.0863C0 12.7941 1.86833 10.9258 4.16056 10.9258C5.08688 10.9258 5.76199 10.6589 6.02889 10.2036C6.29579 9.74826 6.18589 9.02605 5.71488 8.22534C5.16538 7.26763 5.02407 6.13721 5.30668 5.06959C5.58928 3.98628 6.28009 3.09136 7.25351 2.54186L9.96965 0.987533C11.7438 -0.0643828 14.0831 0.547926 15.1507 2.35345L15.3391 2.66746C16.2654 4.26888 17.5372 4.26888 18.4635 2.66746L18.6362 2.36915C19.7038 0.547926 22.0431 -0.0643828 23.833 1.00323L26.5334 2.55756C27.4911 3.10706 28.1819 4.00198 28.4802 5.08529C28.7628 6.16861 28.6215 7.28333 28.072 8.24104C27.6167 9.04175 27.4911 9.76396 27.758 10.2193C28.0249 10.6746 28.7 10.9415 29.6263 10.9415C31.9186 10.9415 33.7869 12.8098 33.7869 15.102V17.8653C33.7869 20.1575 31.9186 22.0258 29.6263 22.0258C28.7 22.0258 28.0249 22.2927 27.758 22.7481C27.4911 23.2034 27.601 23.9256 28.072 24.7263C28.6215 25.684 28.7785 26.8144 28.4802 27.882C28.1976 28.9653 27.5068 29.8603 26.5334 30.4098L23.8173 31.9641C23.2206 32.2938 22.5769 32.4665 21.9175 32.4665ZM16.8777 26.6574C18.2751 26.6574 19.5782 27.5366 20.4731 29.0909L20.6458 29.3893C20.8342 29.719 21.1482 29.9545 21.525 30.0487C21.9018 30.1429 22.2786 30.0958 22.5926 29.9074L25.3088 28.3373C25.717 28.1018 26.031 27.7093 26.1566 27.2383C26.2822 26.7673 26.2194 26.2806 25.9839 25.8724C25.089 24.3338 24.9791 22.7481 25.6699 21.5391C26.3607 20.3302 27.7894 19.6394 29.5792 19.6394C30.5841 19.6394 31.3848 18.8387 31.3848 17.8339V15.0706C31.3848 14.0815 30.5841 13.2651 29.5792 13.2651C27.7894 13.2651 26.3607 12.5743 25.6699 11.3654C24.9791 10.1565 25.089 8.57074 25.9839 7.03212C26.2194 6.62392 26.2822 6.13721 26.1566 5.6662C26.031 5.19519 25.7327 4.81839 25.3245 4.56718L22.6083 3.01286C21.9332 2.60466 21.0383 2.84016 20.6301 3.53097L20.4574 3.82927C19.5625 5.3836 18.2594 6.26281 16.862 6.26281C15.4647 6.26281 14.1616 5.3836 13.2667 3.82927L13.094 3.51527C12.7015 2.85586 11.8223 2.62036 11.1472 3.01286L8.43102 4.58289C8.02282 4.81839 7.70881 5.21089 7.58321 5.6819C7.45761 6.15291 7.52041 6.63962 7.75591 7.04782C8.65083 8.58644 8.76073 10.1722 8.06992 11.3811C7.37911 12.59 5.95039 13.2808 4.16056 13.2808C3.15575 13.2808 2.35503 14.0815 2.35503 15.0863V17.8496C2.35503 18.8387 3.15575 19.6551 4.16056 19.6551C5.95039 19.6551 7.37911 20.3459 8.06992 21.5548C8.76073 22.7638 8.65083 24.3495 7.75591 25.8881C7.52041 26.2963 7.45761 26.783 7.58321 27.254C7.70881 27.725 8.00712 28.1018 8.41532 28.353L11.1315 29.9074C11.4612 30.1115 11.8537 30.1586 12.2148 30.0644C12.5916 29.9702 12.9056 29.719 13.1097 29.3893L13.2824 29.0909C14.1773 27.5523 15.4804 26.6574 16.8777 26.6574Z" fill="white"/>
</svg>
